<?xml version="1.0" encoding="UTF-8"?>
<svg version="1.1" xmlns="http://www.w3.org/2000/svg" width="500" height="500">
<path d="M0 0 C165 0 330 0 500 0 C500 165 500 330 500 500 C335 500 170 500 0 500 C0 335 0 170 0 0 Z " fill="#000000" transform="translate(0,0)"/>
<path d="M0 0 C116.05811623 0 116.05811623 0 137.171875 18.94921875 C150.50038815 32.51020597 154.52036071 50.56314971 154.42016602 68.92700195 C153.96228787 87.7380405 147.79966437 103.80136631 134 117 C119.71030611 129.8722951 102.05786264 133.18164671 83.50390625 133.09765625 C82.44941284 133.09664917 81.39491943 133.09564209 80.30847168 133.09460449 C76.39313662 133.08939737 72.47781715 133.0754362 68.5625 133.0625 C59.796875 133.041875 51.03125 133.02125 42 133 C42 159.4 42 185.8 42 213 C28.14 213 14.28 213 0 213 C0 142.71 0 72.42 0 0 Z " fill="#FDFDFD" transform="translate(82,149)"/>
<path d="M0 0 C13.86 0 27.72 0 42 0 C42 28.71 42 57.42 42 87 C47.39075942 85.92184812 47.72609315 85.72148919 50.75 81.625 C51.43707031 80.71878906 52.12414062 79.81257813 52.83203125 78.87890625 C53.90517578 77.45384766 53.90517578 77.45384766 55 76 C56.47003261 74.18008396 57.9492848 72.36757778 59.4375 70.5625 C60.18902344 69.64597656 60.94054687 68.72945313 61.71484375 67.78515625 C62.46894531 66.86605469 63.22304688 65.94695312 64 65 C65.50028317 63.16689838 67.00028408 61.33356573 68.5 59.5 C69.24894531 58.58476562 69.99789062 57.66953125 70.76953125 56.7265625 C72.20499935 54.97182216 73.63993796 53.21664845 75.07421875 51.4609375 C80.31205163 45.0516115 85.57177219 38.66056804 90.83544922 32.27246094 C94.86734505 27.37822686 98.89099195 22.4775005 102.90234375 17.56640625 C104.41302757 15.71813945 105.92637362 13.87204748 107.44140625 12.02734375 C108.24449219 11.04894531 109.04757812 10.07054687 109.875 9.0625 C110.59429687 8.18722656 111.31359375 7.31195313 112.0546875 6.41015625 C114.02602833 4.16215715 114.02602833 4.16215715 115.00170898 1.8737793 C118.38204578 -1.29593175 122.47112615 -0.48757256 126.91796875 -0.390625 C127.89034988 -0.38496521 128.86273102 -0.37930542 129.86457825 -0.37347412 C132.972718 -0.35106929 136.07970824 -0.30086481 139.1875 -0.25 C141.29360315 -0.22994033 143.39972436 -0.21168864 145.50585938 -0.1953125 C150.67101636 -0.15119093 155.83531324 -0.0821346 161 0 C160.47065035 3.51012801 159.80361848 5.70868808 157.515625 8.42578125 C156.99895264 9.04952637 156.48228027 9.67327148 155.94995117 10.31591797 C155.38896729 10.97479004 154.8279834 11.63366211 154.25 12.3125 C153.06355959 13.73807947 151.87736888 15.16386678 150.69140625 16.58984375 C150.08055176 17.31800293 149.46969727 18.04616211 148.84033203 18.79638672 C145.91991796 22.29329006 143.05493492 25.83463877 140.1875 29.375 C139.09766384 30.716152 138.00782034 32.05729803 136.91796875 33.3984375 C133.97869675 37.02163203 131.06473936 40.6645642 128.15625 44.3125 C124.71788725 48.5979956 121.24498273 52.8553727 117.77734375 57.1171875 C114.83677738 60.73319719 111.90555924 64.35573925 109 68 C106.09351797 71.64541814 103.16182748 75.26946614 100.21923828 78.88574219 C99.08053075 80.28608403 97.94346293 81.68776096 96.80810547 83.09082031 C94.3524023 86.12378351 91.89054515 89.14559725 89.3515625 92.109375 C88.61679687 92.98078125 87.88203125 93.8521875 87.125 94.75 C86.48820312 95.48734375 85.85140625 96.2246875 85.1953125 96.984375 C83.78206199 98.89009327 83.78206199 98.89009327 84.265625 100.91357422 C85.06609057 103.18776927 86.01056976 104.55535567 87.5546875 106.3984375 C88.08143066 107.03539551 88.60817383 107.67235352 89.15087891 108.32861328 C89.71983887 109.0039209 90.28879883 109.67922852 90.875 110.375 C92.06866297 111.81691859 93.26135533 113.25964118 94.453125 114.703125 C95.3512793 115.7869043 95.3512793 115.7869043 96.26757812 116.89257812 C98.76735238 119.93345346 101.20198483 123.02283313 103.625 126.125 C104.07166016 126.69541016 104.51832031 127.26582031 104.97851562 127.85351562 C106.76560582 130.13716344 108.54971415 132.42313306 110.33398438 134.70898438 C115.65868334 141.5261537 121.03241947 148.2966626 126.5 155 C132.88133442 162.82361366 139.12198695 170.75071535 145.33398438 178.70898438 C146.67975256 180.43196057 148.02735318 182.153493 149.375 183.875 C149.81650391 184.4417041 150.25800781 185.0084082 150.71289062 185.59228516 C153.26713634 188.85452102 155.87558062 192.05925274 158.546875 195.2265625 C159.14193848 195.93828613 159.73700195 196.65000977 160.35009766 197.38330078 C161.50653436 198.76243506 162.67247046 200.13367651 163.84912109 201.49560547 C164.37586426 202.12611816 164.90260742 202.75663086 165.4453125 203.40625 C165.91469238 203.95603516 166.38407227 204.50582031 166.86767578 205.07226562 C168.37481956 207.63811455 168.64096257 210.07206777 169 213 C162.38545517 213.35781551 155.77343315 213.60123794 149.15136719 213.76904297 C146.90432547 213.83904125 144.6579122 213.93428659 142.41308594 214.05615234 C122.75565278 215.09581214 122.75565278 215.09581214 116.96435547 210.06079102 C114.30986309 207.22354057 112.16875435 204.16462436 110.15911865 200.84690857 C108.22794372 197.76982623 105.91149328 195.00446695 103.625 192.1875 C102.71777878 191.02289134 101.81128213 189.8577169 100.90625 188.69140625 C97.13873456 183.87403412 93.23167256 179.17265748 89.3347168 174.45996094 C83.72112551 167.67072041 78.16498489 160.83610092 72.61767578 153.99267578 C70.9760329 151.97047699 69.33038484 149.95160162 67.68359375 147.93359375 C67.13582275 147.26150879 66.58805176 146.58942383 66.02368164 145.89697266 C64.93431704 144.56095642 63.84368181 143.22597513 62.75170898 141.89208984 C60.07656497 138.61119904 57.45508032 135.30409824 54.9140625 131.91796875 C54.42244629 131.26908691 53.93083008 130.62020508 53.42431641 129.95166016 C52.50093431 128.72692059 51.58838684 127.49390662 50.68896484 126.25146484 C47.7607007 122.38176891 47.08476401 122.0169528 42 121 C42 151.36 42 181.72 42 213 C28.14 213 14.28 213 0 213 C0 142.71 0 72.42 0 0 Z " fill="#FDFDFD" transform="translate(277,149)"/>
<path d="M0 0 C6.88875 -0.061875 13.7775 -0.12375 20.875 -0.1875 C23.0288623 -0.21481201 25.18272461 -0.24212402 27.40185547 -0.27026367 C29.14029381 -0.27903887 30.87873839 -0.28668035 32.6171875 -0.29296875 C33.4944751 -0.30831665 34.3717627 -0.32366455 35.27563477 -0.33947754 C45.16593351 -0.3435905 54.58474727 2.20740208 62 9 C70.1408209 19.67200051 70.40857653 32.00644646 69 45 C67.28375422 52.15355544 63.23220503 58.1647969 57 62 C45.7712171 67.13114962 45.7712171 67.13114962 39.62036133 67.11352539 C38.28092468 67.11334412 38.28092468 67.11334412 36.91442871 67.11315918 C35.97973755 67.10804321 35.04504639 67.10292725 34.08203125 67.09765625 C33.22009155 67.09664917 32.35815186 67.09564209 31.47009277 67.09460449 C28.25088165 67.08937322 25.03168948 67.07541195 21.8125 67.0625 C14.614375 67.041875 7.41625 67.02125 0 67 C0 44.89 0 22.78 0 0 Z " fill="#000000" transform="translate(124,182)"/>
</svg>
